<svg xmlns="http://www.w3.org/2000/svg" id="Layer_1" viewBox="0 0 512 512"><g><path d="m374.39 237.92c-.46-2.83-2.31-5.24-4.94-6.41l-76.71-34.13 43.29-101.65c1.59-3.74.31-8.09-3.05-10.37-3.37-2.28-7.88-1.86-10.76 1.01l-137.83 136.94c-2.09 2.08-2.96 5.09-2.29 7.96s2.78 5.19 5.58 6.13l74.15 24.81-78.77 133.06c-2.14 3.62-1.37 8.34 1.95 10.92 3.7 2.88 7.98 2.66 11.09-.32l175.62-160.32c2.13-1.92 3.13-4.8 2.67-7.63zm-147.69 117.02 55.12-93.12c1.31-2.21 1.55-4.89.65-7.3s-2.83-4.28-5.27-5.09l-71.05-23.78 97.2-96.57-29.52 69.33c-1.82 4.27.12 9.21 4.37 11.1l72.48 32.25z"></path><path d="m428.46 145.7h-95.28c-4.69 0-8.5 3.81-8.5 8.5s3.81 8.5 8.5 8.5h95.28c7.17 0 11.04 3.55 11.04 5v156.61c0 1.45-3.87 5-11.04 5h-130.71c-4.69 0-8.5 3.81-8.5 8.5s3.81 8.5 8.5 8.5h130.72c15.72 0 28.04-9.66 28.04-22v-156.61c-.01-12.34-12.33-22-28.05-22z"></path><path d="m205.25 337.81c0-4.69-3.81-8.5-8.5-8.5h-63.29c-7.17 0-11.04-3.55-11.04-5v-156.61c0-1.45 3.87-5 11.04-5h96.04c4.69 0 8.5-3.81 8.5-8.5s-3.81-8.5-8.5-8.5h-96.04c-15.72 0-28.04 9.66-28.04 22v31.98h-41.42c-4.69 0-8.5 3.81-8.5 8.5v75.65c0 4.69 3.81 8.5 8.5 8.5h41.43v31.98c0 12.34 12.31 22 28.04 22h63.29c4.69 0 8.49-3.81 8.49-8.5zm-132.75-62.49v-58.65h32.93v58.65z"></path></g></svg>