<?xml version="1.0" encoding="UTF-8"?>
<svg viewBox="0 0 1920 268" version="1.1" xmlns="http://www.w3.org/2000/svg">
<path d="M0 0 C4.76691495 3.7867233 8.20617306 8.98604635 11.79931641 13.85449219 C14.04696626 16.87243439 16.38679412 19.81580766 18.72265625 22.765625 C19.64370373 23.93712705 20.56427631 25.10900262 21.484375 26.28125 C23.27744149 28.56345027 25.07177425 30.84464556 26.8671875 33.125 C32.61218512 40.42452638 38.32469242 47.748674 44.02392578 55.08398438 C48.95924556 61.43345528 53.92116373 67.76154336 58.89599609 74.08007812 C61.63132253 77.55536221 64.36280413 81.03367163 67.09399414 84.51220703 C69.40630354 87.45664375 71.72165086 90.39859606 74.04296875 93.3359375 C79.88181647 100.73187873 85.60868917 108.19716568 91.22265625 115.765625 C95.27481907 114.22543642 97.05621303 111.70047659 99.59765625 108.265625 C100.48094407 107.08661974 101.36510925 105.90827143 102.25 104.73046875 C102.72550293 104.09351074 103.20100586 103.45655273 103.69091797 102.80029297 C106.46992084 99.10883458 109.31857059 95.47148106 112.16015625 91.828125 C113.0567395 90.67618652 113.0567395 90.67618652 113.97143555 89.50097656 C119.80097001 82.01321064 125.66525581 74.55301529 131.53613281 67.09765625 C137.728388 59.23243796 143.88933371 51.34364396 150.03051758 43.43847656 C154.01237848 38.31513073 158.00652613 33.20186431 162.03027344 28.11132812 C164.64213975 24.80105067 167.21775563 21.46625629 169.76953125 18.109375 C170.38376953 17.30628906 170.99800781 16.50320312 171.63085938 15.67578125 C172.82326996 14.11540516 174.00986903 12.55056362 175.18945312 10.98046875 C183.58620691 0.02647722 183.58620691 0.02647722 189.84765625 -2.14453125 C195.55158066 -2.51040798 199.26967419 -2.20616424 204.22265625 0.765625 C209.9779313 6.67644802 210.51779446 12.21963967 210.49008179 20.0827179 C210.4946129 21.02464609 210.49914401 21.96657428 210.50381243 22.93704575 C210.51647878 26.09520594 210.51483461 29.25319417 210.51318359 32.41137695 C210.51916745 34.67496971 210.52597267 36.93856042 210.53353882 39.20214844 C210.55122073 45.35303069 210.55589513 51.5038573 210.55717039 57.65476251 C210.55906894 62.78895347 210.566426 67.92313146 210.57351458 73.05731744 C210.58887397 84.47863971 210.59485176 95.89992573 210.59350388 107.32125566 C210.59342397 108.00632284 210.59334405 108.69139001 210.59326172 109.3972168 C210.59317996 110.08312282 210.5930982 110.76902884 210.59301396 111.47571989 C210.59220123 122.589248 210.61133616 133.70264052 210.63953845 144.81612942 C210.66828393 156.23398877 210.68171176 167.65175455 210.6803509 179.06965607 C210.67984089 185.47728333 210.68554568 191.88475716 210.706707 198.29235268 C210.72606809 204.3194973 210.72622815 210.34634181 210.71167374 216.37349701 C210.7095819 218.58418656 210.71430875 220.79489479 210.72639465 223.00555229 C210.74183968 226.02658124 210.73254331 229.0465744 210.71713257 232.06758118 C210.72741969 232.9396769 210.73770682 233.81177263 210.74830568 234.7102955 C210.68359703 240.4617923 209.57085507 245.00533927 206.22265625 249.765625 C201.84486558 253.68178931 197.37060086 254.39736057 191.58984375 254.16015625 C186.90036501 253.37857646 183.20074173 250.37067585 180.22265625 246.765625 C179.04703237 243.23875335 179.06948597 240.0515369 179.06443787 236.38154602 C179.05949989 235.62352556 179.05456191 234.8655051 179.0494743 234.08451432 C179.03408103 231.53722077 179.02573373 228.98995246 179.01733398 226.44262695 C179.0077569 224.61954526 178.99774692 222.79646579 178.98733521 220.97338867 C178.96026172 216.01712705 178.93926538 211.06085589 178.91933322 206.10456109 C178.89748874 200.92753366 178.87009253 195.75053574 178.84327698 190.5735321 C178.79332927 180.7669668 178.74839815 170.96038513 178.70525461 161.15378779 C178.65589999 149.99067051 178.60097528 138.82758282 178.54557502 127.66449416 C178.43172308 104.69823205 178.32489103 81.73194155 178.22265625 58.765625 C176.29626555 61.16893065 174.37049196 63.57272639 172.44506836 65.97680664 C171.63127842 66.9918716 171.63127842 66.9918716 170.80104828 68.02744293 C167.05886596 72.70123726 163.38621924 77.41964188 159.78515625 82.203125 C155.5148242 87.83499343 151.14608706 93.36661313 146.66015625 98.828125 C141.8498585 104.68579728 137.25657992 110.66854865 132.74633789 116.75927734 C128.63418752 122.28407072 124.32952617 127.63167793 119.95507812 132.95019531 C115.62891083 138.22058654 111.5010441 143.61601947 107.44140625 149.09375 C104.76571186 152.31588902 101.98393336 154.88498644 98.22265625 156.765625 C96.31111455 156.94018195 94.39161569 157.03277646 92.47265625 157.078125 C91.4465625 157.11550781 90.42046875 157.15289062 89.36328125 157.19140625 C82.2212476 156.22314547 78.33789055 150.91691697 74.16015625 145.578125 C73.60070312 144.876875 73.04125 144.175625 72.46484375 143.453125 C67.93073421 137.74237854 63.51095864 131.94364092 59.10595703 126.13305664 C54.81809857 120.49273455 50.38006324 114.98916602 45.89111328 109.50830078 C41.71836899 104.40406126 37.67944889 99.21305446 33.6796875 93.97265625 C31.07862996 90.56708313 28.43569976 87.19525888 25.78515625 83.828125 C25.33317871 83.25384766 24.88120117 82.67957031 24.41552734 82.08789062 C23.49352923 80.91699554 22.57132678 79.74626133 21.64892578 78.57568359 C19.17180219 75.43200089 16.69695227 72.28653337 14.22265625 69.140625 C13.76576416 68.56062744 13.30887207 67.98062988 12.83813477 67.38305664 C10.5981596 64.53534603 8.39057707 61.668421 6.22265625 58.765625 C6.22303328 59.71776666 6.2234103 60.66990831 6.22379875 61.65090275 C6.23160327 84.81974178 6.20501625 107.98834686 6.14237785 131.15710545 C6.11288231 142.36137829 6.09455768 153.56546139 6.10253906 164.76977539 C6.10946738 174.53559751 6.09542778 184.30112598 6.05622017 194.06687587 C6.03619206 199.23775344 6.0266569 204.40816987 6.04223251 209.57907295 C6.05656553 214.44744769 6.04283616 219.31494142 6.00770378 224.18320274 C5.99974367 225.96857254 6.00198304 227.7540219 6.01526451 229.53936005 C6.11858934 244.71346645 6.11858934 244.71346645 2.42434692 249.25743103 C-2.05593907 253.39736625 -6.29411126 254.20867847 -12.23828125 254.0859375 C-17.06728291 253.47674037 -20.36807713 251.31581828 -23.65234375 247.703125 C-25.40708751 244.6810663 -25.90289211 242.18430239 -25.91156483 238.75877666 C-25.91602267 237.94138915 -25.92048051 237.12400163 -25.92507344 236.28184479 C-25.92488908 235.38419414 -25.92470472 234.48654348 -25.92451477 233.56169128 C-25.92819146 232.60781015 -25.93186815 231.65392902 -25.93565625 230.6711424 C-25.94670832 227.46068786 -25.95053949 224.25026566 -25.9543457 221.03979492 C-25.96060912 218.74369707 -25.96725581 216.44760023 -25.97425842 214.15150452 C-25.99167747 207.9035482 -26.0022223 201.65559954 -26.01046395 195.40762496 C-26.01561137 191.50642688 -26.02168716 187.6052312 -26.02797508 183.70403481 C-26.04484443 172.90291547 -26.05948008 162.10179982 -26.06672382 151.30066967 C-26.06863371 148.49821662 -26.07055404 145.69576357 -26.07250977 142.89331055 C-26.07299351 142.19677706 -26.07347725 141.50024357 -26.07397565 140.782603 C-26.08227808 129.4962412 -26.10761943 118.20998532 -26.14009044 106.92366978 C-26.17315563 95.33639462 -26.1908392 83.74917878 -26.19436806 72.16185647 C-26.19672217 65.65588546 -26.20572989 59.15008191 -26.23082924 52.6441555 C-26.25405462 46.52513131 -26.25836537 40.40638551 -26.24806786 34.28732872 C-26.24757107 32.04031958 -26.2539334 29.79329699 -26.2676239 27.5463295 C-26.2852587 24.4807201 -26.27827771 21.41611892 -26.26509094 18.35050964 C-26.27606019 17.45955115 -26.28702943 16.56859266 -26.29833108 15.65063542 C-26.24157661 10.19264799 -25.39889929 7.1022187 -21.77734375 2.765625 C-15.48146311 -3.05806459 -7.83185884 -4.28564145 0 0 Z " fill="#517CEC" transform="translate(530.77734375,8.234375)"/>
<path d="M0 0 C1.53303017 -0.00810448 1.53303017 -0.00810448 3.09703064 -0.01637268 C6.47123315 -0.02886381 9.8445825 -0.01235629 13.21875 0.00561523 C15.57560267 0.00546016 17.93245559 0.0039698 20.28930664 0.00120544 C25.2322109 -0.00017906 30.17482522 0.01238104 35.11767578 0.03515625 C41.42079444 0.06341591 47.7234269 0.06083798 54.02658081 0.04806614 C58.89797025 0.04107042 63.76924962 0.04894457 68.640625 0.06132317 C70.96239803 0.06580875 73.28418301 0.06620005 75.60595703 0.06225777 C103.4433125 0.03713488 126.25184829 5.41066023 146.71875 25.50170898 C147.41871094 26.17717773 148.11867187 26.85264648 148.83984375 27.54858398 C160.0303771 39.15358154 166.65196174 55.49988501 167.71875 71.50170898 C167.7703125 72.20811523 167.821875 72.91452148 167.875 73.64233398 C168.61249908 92.20272759 161.62478361 110.6746565 149.46875 124.56420898 C145.4656564 128.86634523 141.20292978 132.81760777 136.78515625 136.68920898 C135.38831177 137.91441851 134.03258273 139.18787625 132.71875 140.50170898 C133.33621094 140.96319336 133.95367187 141.42467773 134.58984375 141.90014648 C149.25906733 153.19790468 158.83652519 166.20829903 162.71875 184.50170898 C163.22159713 189.50445677 163.25859939 194.44948761 163.21484375 199.47436523 C163.21499929 200.85485409 163.21649727 202.23534336 163.21925354 203.61582947 C163.2206229 206.4773237 163.20831539 209.33830764 163.18530273 212.19970703 C163.15667727 215.85802078 163.15974005 219.51550487 163.17239285 223.17388248 C163.17935264 226.01099199 163.17156149 228.84791055 163.15913582 231.68499565 C163.15247048 233.68631283 163.15674902 235.68765687 163.16123962 237.6889801 C163.14855545 238.90472214 163.13587128 240.12046417 163.12280273 241.37304688 C163.11739975 242.43890518 163.11199677 243.50476349 163.10643005 244.60292053 C162.41854015 249.74645913 159.54621392 253.15267805 155.71875 256.50170898 C150.57655475 258.21577407 144.97044362 258.40238643 139.90625 256.37670898 C135.46536022 252.57023203 132.53285109 249.35100489 131.71875 243.50170898 C131.62773028 241.68411768 131.5836708 239.86380161 131.5769043 238.04394531 C131.56635262 236.44121513 131.56635262 236.44121513 131.55558777 234.80610657 C131.55142349 233.66022568 131.54725922 232.51434479 131.54296875 231.33374023 C131.51976598 228.88907021 131.49564846 226.44440873 131.47070312 223.99975586 C131.43564934 220.15977286 131.40627064 216.32010374 131.39282227 212.47998047 C131.377275 208.76418345 131.33701829 205.04929485 131.29296875 201.33374023 C131.29583138 199.63010063 131.29583138 199.63010063 131.29875183 197.89204407 C131.12687552 186.5915044 127.95909388 178.8818874 120.12109375 170.75170898 C104.22610958 155.86469942 82.40568437 153.20883384 61.56054688 152.96728516 C56.21112253 152.85483618 52.32383142 152.54018834 47.71875 149.50170898 C43.53925505 144.87037674 42.35866857 142.00771766 42.4375 135.88842773 C42.90706487 131.90364805 44.32757132 129.73303153 46.71875 126.50170898 C50.82545826 123.32232194 54.49840356 123.07413649 59.51953125 123.09545898 C60.27356735 123.0846228 61.02760345 123.07378662 61.80448914 123.06262207 C64.21349515 123.02849072 66.62203489 123.01282807 69.03125 123.00170898 C88.79006388 122.90824827 107.71835571 121.86360297 122.94140625 107.50952148 C131.61798693 97.70784573 135.9812959 86.57977685 135.71875 73.50170898 C133.8293002 60.19120996 127.89870086 48.95962104 117.15625 40.87670898 C107.45594785 34.35105117 97.10393581 31.38423645 85.53198242 31.29638672 C84.72170593 31.28648712 83.91142944 31.27658752 83.07659912 31.26638794 C80.40916831 31.2349028 77.74171971 31.21006706 75.07421875 31.18530273 C73.22047982 31.16472198 71.36674546 31.14372522 69.51301575 31.12232971 C64.64197503 31.06722482 59.77089276 31.01776459 54.89978027 30.96948242 C49.92598793 30.91918268 44.95225567 30.8635409 39.97851562 30.80834961 C30.22531178 30.70090976 20.47205569 30.59943348 10.71875 30.50170898 C10.72243717 31.61453814 10.72612434 32.72736729 10.72992325 33.87391853 C10.81868355 60.93947901 10.884435 88.00502064 10.92599869 115.07069588 C10.94663232 128.15940648 10.9747684 141.24802099 11.02050781 154.33666992 C11.06035085 165.74345617 11.08617698 177.15017284 11.09510398 188.55702674 C11.10032297 194.59804323 11.11260648 200.63886064 11.14167023 206.67981339 C11.16879909 212.36459972 11.1772 218.04910475 11.17118073 223.73394966 C11.17228208 225.82131923 11.18025084 227.9086981 11.1955719 229.99601173 C11.21545995 232.84502842 11.21069327 235.69298165 11.19976807 238.54202271 C11.21141943 239.36888144 11.2230708 240.19574017 11.23507524 241.04765522 C11.18021902 246.33644789 10.18768563 249.28630962 6.71875 253.50170898 C3.04032337 256.91098245 0.17464922 257.80061039 -4.71875 258.00170898 C-10.05071956 257.79133195 -13.05877409 256.75653416 -17.28125 253.50170898 C-21.0016196 248.92802421 -20.70617872 244.52916623 -20.66893005 238.90541077 C-20.67431559 237.93348658 -20.67970113 236.96156238 -20.68524987 235.96018595 C-20.69956749 232.70054238 -20.69241622 229.44130272 -20.68530273 226.18164062 C-20.69100429 223.84583712 -20.69796772 221.51003641 -20.70610046 219.17424011 C-20.7240704 212.82718826 -20.72285626 206.48027437 -20.71715808 200.1332047 C-20.71368155 194.16756208 -20.72162442 188.2019407 -20.72851873 182.23630267 C-20.74224515 169.6995142 -20.7368051 157.16278815 -20.72533352 144.62600111 C-20.71540094 133.15869237 -20.7283419 121.69154497 -20.75226771 110.22426111 C-20.77665483 98.44706781 -20.78626755 86.66994966 -20.77961498 74.89273161 C-20.77624022 68.28173465 -20.7786951 61.67087102 -20.79586601 55.05989265 C-20.81130566 48.84396536 -20.80741242 42.62834669 -20.78856087 36.41243172 C-20.78486679 34.12995463 -20.78800716 31.84745483 -20.79844666 29.56499863 C-20.81160173 26.45130448 -20.80015699 23.33864032 -20.78245544 20.22499084 C-20.79206045 19.3198328 -20.80166546 18.41467475 -20.81156152 17.48208767 C-20.74725044 11.99142476 -19.93840832 8.85736927 -16.28125 4.50170898 C-11.12745262 -0.13070675 -6.58982177 -0.06657541 0 0 Z " fill="#8460F3" transform="translate(30.28125,4.498291015625)"/>
<path d="M0 0 C1.23233368 -0.00571014 2.46466736 -0.01142029 3.73434448 -0.01730347 C5.10237111 -0.01854881 6.47039786 -0.01967391 7.83842468 -0.02069092 C9.27739082 -0.02531963 10.71635573 -0.03034437 12.15531921 -0.03573608 C16.06657625 -0.04885719 19.97781612 -0.05530451 23.88909173 -0.05974674 C26.33295628 -0.06267801 28.77681614 -0.06678293 31.22067833 -0.07125092 C38.86771126 -0.08492525 46.51473348 -0.09459215 54.16177779 -0.09845281 C62.98774425 -0.10293318 71.81355581 -0.1204803 80.63947517 -0.1494534 C87.46250612 -0.17107368 94.28549351 -0.18115728 101.10855836 -0.18249393 C105.18324531 -0.18354173 109.25778664 -0.18944427 113.33243752 -0.20731354 C117.16641726 -0.22380021 121.00014202 -0.22594694 124.83414459 -0.21717453 C126.23939637 -0.21640446 127.64466189 -0.22074294 129.04987907 -0.23063278 C130.97217576 -0.2433657 132.89457504 -0.23567888 134.81689453 -0.22705078 C135.89149587 -0.22851734 136.9660972 -0.2299839 138.07326221 -0.2314949 C143.09251297 0.3855089 146.29517526 2.37241653 149.91142273 5.82794189 C152.49857718 9.74563292 153.39587968 12.47647098 153.09892273 17.14044189 C152.17689934 21.58880037 150.84721307 24.42865352 147.53642273 27.57794189 C143.97626852 29.86009203 142.17125446 30.26478396 137.96107483 30.26069641 C136.32881203 30.26275841 136.32881203 30.26275841 134.66357422 30.26486206 C133.4645195 30.26126678 132.26546478 30.25767151 131.03007507 30.25396729 C129.77157242 30.25411331 128.51306976 30.25425934 127.21643066 30.25440979 C123.76003357 30.25469737 120.30367099 30.24880698 116.84728193 30.24183583 C113.23712303 30.23559577 109.62696339 30.23499798 106.01679993 30.23381042 C99.17803559 30.23069904 92.33928719 30.22248824 85.50052989 30.21246094 C76.26101534 30.19920684 67.02149645 30.19379833 57.78197479 30.18795872 C43.2209455 30.17854823 28.65994983 30.15862802 14.09892273 30.14044189 C14.09892273 57.20044189 14.09892273 84.26044189 14.09892273 112.14044189 C23.34150085 112.09403564 32.58407898 112.04762939 42.10673523 111.99981689 C47.95830219 111.9793814 53.80984332 111.95996029 59.66142273 111.94512939 C68.95155163 111.92139441 78.24153542 111.89349127 87.53153992 111.83868408 C94.29740791 111.79878732 101.06315818 111.77300224 107.82914054 111.76408792 C111.41099807 111.7588779 114.99251885 111.74665262 118.57426834 111.71752167 C122.57498802 111.68524776 126.57512405 111.68448429 130.57597351 111.68634033 C131.76064713 111.67195923 132.94532074 111.65757813 134.16589355 111.64276123 C140.44140062 111.67431256 144.36799687 111.84482638 149.09892273 116.14044189 C152.07561559 119.9382914 152.85103144 123.34787688 153.09892273 128.14044189 C152.28969887 133.90616192 150.21139656 136.45563582 145.85282898 139.97637939 C142.56934271 142.15561973 139.73967613 142.26447028 135.91674805 142.26069641 C134.30766571 142.26275841 134.30766571 142.26275841 132.66607666 142.26486206 C131.4893187 142.26126678 130.31256073 142.25767151 129.10014343 142.25396729 C127.86100189 142.25411331 126.62186035 142.25425934 125.34516907 142.25440979 C121.94667101 142.25383204 118.54823352 142.24881288 115.14974618 142.24183583 C111.59831689 142.2355893 108.04688682 142.23499746 104.49545288 142.23381042 C97.7700528 142.23070095 91.04466896 142.22249272 84.31927603 142.21246094 C75.23143056 142.19919918 66.14358066 142.19379679 57.05572796 142.18795872 C42.73678072 142.17855258 28.41786774 142.1586311 14.09892273 142.14044189 C14.09892273 170.19044189 14.09892273 198.24044189 14.09892273 227.14044189 C23.25771179 227.09403564 32.41650085 227.04762939 41.85282898 226.99981689 C47.65426578 226.97937936 53.45567649 226.95995801 59.25712585 226.94512939 C68.46595681 226.92140232 77.67464128 226.89352137 86.88334656 226.83868408 C93.59026051 226.79876391 100.29705554 226.7729967 107.004085 226.76408792 C110.55411788 226.75888185 114.10381057 226.74668187 117.65373421 226.71752167 C121.62063507 226.68520183 125.5872058 226.68448582 129.554245 226.68634033 C130.7259726 226.67195923 131.8977002 226.65757812 133.10493469 226.64276123 C139.66682115 226.67596611 143.78442572 227.17823311 149.09892273 231.14044189 C152.26671294 234.94179015 153.24829286 239.23923434 153.09892273 244.14044189 C151.50409775 249.36792378 149.2542032 252.6084535 145.09892273 256.14044189 C141.86960028 257.21688271 139.52578072 257.27425629 136.12864685 257.28761292 C134.88093002 257.29476822 133.6332132 257.30192352 132.34768677 257.30929565 C130.96235682 257.31213589 129.5770266 257.31484762 128.19169617 257.31744385 C126.73464801 257.32370947 125.27760145 257.33035636 123.82055664 257.33735657 C119.0331483 257.35838811 114.24573968 257.36875826 109.45829773 257.37872314 C107.80944553 257.38277107 106.1605935 257.38688801 104.51174164 257.39107323 C96.76486353 257.4101231 89.01799493 257.42435442 81.2710979 257.4326852 C72.33246613 257.44245654 63.39408206 257.46877411 54.45553756 257.50918609 C47.54417008 257.53935932 40.63287356 257.55415522 33.72144151 257.55746621 C29.59469248 257.55981538 25.46820814 257.56875826 21.34152985 257.59392738 C17.45742817 257.61723435 13.57376496 257.62143102 9.68961143 257.611166 C8.26703367 257.61067116 6.84443413 257.61697651 5.42192268 257.63072205 C-8.57693522 257.75838132 -8.57693522 257.75838132 -13.90107727 253.14044189 C-17.82447266 247.44143472 -18.47663749 242.18856485 -18.40228271 235.41789246 C-18.40781711 234.46861187 -18.41335151 233.51933128 -18.41905361 232.54128462 C-18.43261326 229.37606871 -18.4177161 226.21164773 -18.40278625 223.04644775 C-18.40657109 220.77093675 -18.41207249 218.49542805 -18.41915894 216.21992493 C-18.43310832 210.05060573 -18.42194748 203.88156559 -18.40544772 197.71226192 C-18.39158742 191.25330691 -18.39805836 184.79436795 -18.40158081 178.33540344 C-18.40428195 167.49033468 -18.39090274 156.64539375 -18.36763 145.800354 C-18.34370544 134.6502471 -18.3366287 123.50028665 -18.34712219 112.35015869 C-18.35975781 98.89983527 -18.35723336 85.44962644 -18.34146309 71.9993 C-18.33570604 66.86667867 -18.33578378 61.73410635 -18.34052849 56.6014843 C-18.34530176 50.55790366 -18.33518178 44.51452561 -18.31357384 38.47098351 C-18.30801087 36.25343255 -18.30753616 34.0358621 -18.3125267 31.81830978 C-18.31848575 28.79065116 -18.30596205 25.76361066 -18.28875732 22.73600769 C-18.29476737 21.85915453 -18.30077742 20.98230138 -18.30696958 20.07887691 C-18.24536874 14.11470883 -17.43465138 9.08308266 -13.40107727 4.39825439 C-8.73842748 0.87698242 -5.76384459 0.01597203 0 0 Z " fill="#7668F1" transform="translate(283.9010772705078,4.85955810546875)"/>
<path d="M0 0 C3.48740378 3.07712098 5.75916643 6.55837846 6.48566437 11.15888786 C6.61554248 13.8223833 6.61993765 16.45836155 6.57910156 19.12475586 C6.5795837 20.14655473 6.58006584 21.1683536 6.58056259 22.22111607 C6.57758978 25.51105295 6.54718858 28.80007018 6.515625 32.08984375 C6.5097399 34.12796594 6.50566163 36.16609418 6.50341797 38.20422363 C6.48249237 45.74040827 6.42664721 53.27646328 6.375 60.8125 C6.2925 77.663125 6.21 94.51375 6.125 111.875 C53.645 111.875 101.165 111.875 150.125 111.875 C149.96669777 77.91857411 149.96669777 77.91857411 149.76464844 43.96240234 C149.74658203 37.38793945 149.74658203 37.38793945 149.7432251 34.30801392 C149.73709151 32.16157717 149.72304118 30.01515403 149.70269775 27.86880493 C149.67338989 24.61330298 149.66937684 21.35864159 149.67089844 18.10302734 C149.656506 17.1503063 149.64211357 16.19758526 149.627285 15.21599388 C149.66331975 9.45104757 150.35242093 6.30105723 154.125 1.875 C157.63240204 -0.82967704 161.26996386 -2.00285198 165.625 -2.625 C169.97481813 -2.00359741 173.69661767 -0.94546299 177.125 1.875 C181.10466537 7.57246327 181.70137121 11.7807685 181.63293457 18.63587952 C181.63917453 19.60134545 181.6454145 20.56681139 181.65184355 21.56153387 C181.66776212 24.78744822 181.65517342 28.01260581 181.64257812 31.23852539 C181.64799969 33.55492086 181.65512254 35.87131288 181.66381836 38.18769836 C181.6820493 44.47269628 181.67498519 50.75743148 181.66230202 57.04243398 C181.6521745 63.61931519 181.6615669 70.19617393 181.66784668 76.77305603 C181.67638873 88.52392804 181.66316058 100.27468951 181.64280933 112.02554237 C181.62493484 122.67602297 181.62804685 133.32632918 181.64648438 143.97680664 C181.66789831 156.35236413 181.67585466 168.72781046 181.66403532 181.10338396 C181.65779736 187.6517448 181.65697332 194.19998556 181.67018127 200.7483387 C181.68172923 206.90356986 181.67373285 213.0584714 181.65060425 219.21366692 C181.64531182 221.47356494 181.64684 223.73349066 181.65565491 225.99337769 C181.6665723 229.07632863 181.65289199 232.15822079 181.63293457 235.24110413 C181.64185746 236.13711604 181.65078034 237.03312795 181.65997362 237.95629174 C181.59128232 243.42019477 180.75221592 246.53173193 177.125 250.875 C172.82571361 254.65316077 168.95407684 255.17089966 163.40625 255.08984375 C158.69593471 254.64623529 155.92085659 252.75689514 152.8125 249.3125 C150.59639648 246.11146158 150.00012985 244.51722687 150.00474548 240.68624878 C150.00267924 239.37225759 150.00267924 239.37225759 150.00057125 238.03172112 C150.00416936 237.06460764 150.00776747 236.09749416 150.01147461 235.10107422 C150.01135407 234.06996584 150.01123354 233.03885746 150.01110935 231.97650337 C150.01185777 228.62754306 150.01948279 225.2786379 150.02734375 221.9296875 C150.02881339 219.86661811 150.02983396 217.80354835 150.03039551 215.74047852 C150.03564584 208.07698 150.04960695 200.41348946 150.0625 192.75 C150.083125 175.63125 150.10375 158.5125 150.125 140.875 C102.605 140.875 55.085 140.875 6.125 140.875 C6.24372491 174.50226945 6.24372491 174.50226945 6.39526367 208.12939453 C6.40881348 214.64038086 6.40881348 214.64038086 6.41133118 217.69064331 C6.4159311 219.81623214 6.42646824 221.94181325 6.44172668 224.06735229 C6.46370872 227.29129592 6.46671725 230.51476211 6.46557617 233.73876953 C6.4763705 234.68212221 6.48716482 235.62547489 6.49828625 236.59741402 C6.47374287 241.78290851 6.04033336 245.39756122 3.125 249.875 C-1.83330075 254.46142819 -5.80812043 255.23267473 -12.37109375 255.15625 C-17.0941385 254.62573639 -19.70581474 251.99617793 -23.00731659 248.83023739 C-25.6591711 244.63420526 -25.43082617 241.1489077 -25.38293457 236.27870178 C-25.38917453 235.30677759 -25.3954145 234.3348534 -25.40184355 233.33347696 C-25.41780999 230.07371576 -25.40515461 226.81469852 -25.39257812 223.55493164 C-25.39799763 221.21912703 -25.40511933 218.88332583 -25.41381836 216.54753113 C-25.4320758 210.20043431 -25.42497375 203.85359716 -25.41230202 197.50649571 C-25.40321083 191.54085122 -25.41014511 185.57523901 -25.4160108 179.60959368 C-25.42741658 167.0727811 -25.41430344 154.53608552 -25.39280933 141.99929213 C-25.37494247 131.24531907 -25.37803898 120.49151876 -25.39648438 109.73754883 C-25.41789835 97.24701116 -25.42631356 84.75657608 -25.41403532 72.26602262 C-25.40779626 65.65503411 -25.40697613 59.04416456 -25.42018127 52.43318367 C-25.43172958 46.2172428 -25.42373217 40.00162832 -25.40060425 33.78572273 C-25.39531155 31.50325055 -25.39684046 29.22075094 -25.40565491 26.93828964 C-25.41657149 23.82458189 -25.40289278 20.71192265 -25.38293457 17.59828186 C-25.39185746 16.69312381 -25.40078034 15.78796577 -25.40997362 14.85537869 C-25.34164265 9.36641993 -24.52049874 6.23857664 -20.875 1.875 C-14.95030309 -3.49425658 -7.11728932 -2.78502625 0 0 Z " fill="#00B6DB" transform="translate(1728.875,7.125)"/>
<path d="M0 0 C0.81936035 0.19867676 1.6387207 0.39735352 2.48291016 0.60205078 C18.4175052 4.55094337 33.1657485 10.34270291 47.3125 18.6875 C47.91690918 19.04368408 48.52131836 19.39986816 49.14404297 19.7668457 C54.95625121 23.34149408 59.73069308 27.44422445 62 34 C62.40652631 39.17139285 61.49476042 42.90835025 58.1875 46.9375 C55.42109278 49.94570117 52.81355387 51.70243935 48.73828125 52.37109375 C41.81792312 52.56053995 37.70864901 50.75959554 32 47 C5.67520967 30.15953659 -26.92252335 23.17129474 -57.875 29.1875 C-60.26262445 29.73967011 -62.63929609 30.34218588 -65 31 C-66.22976563 31.3403125 -67.45953125 31.680625 -68.7265625 32.03125 C-87.90089778 37.90661568 -104.74631244 47.94183627 -119 62 C-119.80566406 62.79277344 -120.61132812 63.58554688 -121.44140625 64.40234375 C-138.33767644 82.06261921 -146.72326346 105.94223379 -146.47241211 130.16381836 C-146.00099988 144.09938053 -142.61597266 156.70637773 -136 169 C-135.46375 170.02738281 -134.9275 171.05476562 -134.375 172.11328125 C-130.43079743 179.29866881 -125.71265697 185.14615569 -120 191 C-119.175 191.86625 -118.35 192.7325 -117.5 193.625 C-116.675 194.40875 -115.85 195.1925 -115 196 C-114.12214844 196.87011719 -114.12214844 196.87011719 -113.2265625 197.7578125 C-89.1632451 220.56876393 -56.13984243 226.87230293 -24.14892578 226.13183594 C-2.28150995 225.2163138 18.582925 216.55822196 36.36328125 204.12890625 C40.62687512 201.1881458 44.97241913 201.57458931 50 202 C55.67479542 203.99668728 58.39491835 207.171999 61.3125 212.3125 C62.64017209 217.50249091 61.87933849 221.43399859 59.32421875 225.984375 C44.48665363 245.23580403 9.76958685 253.02164277 -12.99194336 256.28564453 C-52.22585925 261.29689987 -94.35653884 251.95983482 -126.33618164 228.2109375 C-152.62337598 207.86819568 -172.16291615 180.06468507 -177.52124023 146.76025391 C-181.75112988 113.53804056 -174.68524467 81.55501103 -155.0390625 54.27734375 C-153.09847816 51.77834636 -151.08018868 49.38386586 -149 47 C-148.19046875 46.04609375 -147.3809375 45.0921875 -146.546875 44.109375 C-126.63697574 21.13869465 -98.41715602 6.55976314 -69 0 C-67.95585938 -0.24339111 -67.95585938 -0.24339111 -66.890625 -0.49169922 C-45.86068334 -5.20883197 -20.89506235 -5.24142538 0 0 Z " fill="#00ABDF" transform="translate(1578,5)"/>
<path d="M0 0 C1.13218553 -0.00573832 1.13218553 -0.00573832 2.28724349 -0.01159257 C4.81206042 -0.02189709 7.33664887 -0.01793528 9.86148071 -0.01396179 C11.67349966 -0.0183097 13.48551676 -0.02349311 15.29753113 -0.02944946 C20.21699036 -0.04284281 25.13637278 -0.04341771 30.05584669 -0.04088616 C34.16369165 -0.03981659 38.27152107 -0.04469951 42.3793627 -0.04949158 C52.07149329 -0.06058812 61.76358513 -0.06102347 71.45571899 -0.05497742 C81.45149014 -0.04893777 91.44712051 -0.06124809 101.44286764 -0.08254749 C110.02730468 -0.10016643 118.61169692 -0.10616434 127.19615138 -0.10290974 C132.32213519 -0.10109707 137.44801862 -0.10373141 142.57398605 -0.11762428 C147.39538557 -0.13020258 152.21656579 -0.12825845 157.03796196 -0.11521339 C158.80561459 -0.112848 160.57328265 -0.11558097 162.34091759 -0.12383652 C164.75788696 -0.13430908 167.1741212 -0.1261996 169.59106445 -0.11352539 C170.2870894 -0.12089968 170.98311435 -0.12827396 171.70023096 -0.13587171 C176.70442808 -0.08083745 180.04926312 0.99477004 184.42251587 3.26069641 C188.96946564 8.1666159 189.72179864 11.26747139 189.63735962 17.78804016 C189.23486446 22.42039354 187.25328965 24.53123651 183.86001587 27.51069641 C179.78920443 30.43333026 176.81660786 30.39817217 171.94351196 30.3742218 C171.17268784 30.37436783 170.40186371 30.37451385 169.60768127 30.37466431 C167.05374358 30.37396631 164.49987836 30.36617916 161.94595337 30.35835266 C160.17761271 30.35648808 158.40927154 30.35506437 156.64093018 30.35406494 C151.98186828 30.35024291 147.32283745 30.34041529 142.66378784 30.32936096 C137.91149313 30.3191401 133.1591934 30.31456587 128.40689087 30.30952454 C119.0787522 30.29879276 109.75063662 30.28172008 100.42251587 30.26069641 C100.42528125 31.37444736 100.42804663 32.4881983 100.43089581 33.63569927 C100.49745169 60.71761338 100.54677282 87.7995169 100.57795238 114.88149548 C100.5934308 127.97805879 100.61453898 141.07456813 100.64883423 154.1710968 C100.6787067 165.58409912 100.69808378 176.99706234 100.70478135 188.41010267 C100.70869724 194.45496128 100.71792047 200.49970805 100.73970604 206.54453087 C100.76003712 212.23174392 100.76635647 217.91879883 100.76183891 223.60604477 C100.76266562 225.69544013 100.76865128 227.78484066 100.78013229 229.87420464 C100.79502339 232.72342007 100.79148172 235.57203579 100.78327942 238.42126465 C100.79201794 239.25103622 100.80075647 240.08080779 100.8097598 240.93572396 C100.77375013 245.55273519 100.37206195 248.49065475 97.42251587 252.26069641 C92.67616245 256.53241449 89.02113179 257.64203344 82.77017212 257.53022766 C78.89819682 257.0856914 76.3334849 255.81581713 73.42251587 253.26069641 C69.59879553 247.78895502 68.84795048 242.66591809 68.9414978 236.13642883 C68.9380801 235.25162968 68.9346624 234.36683052 68.93114114 233.45521927 C68.92458461 230.50853185 68.94650138 227.56276779 68.96841431 224.61616516 C68.96954327 222.4967857 68.96890798 220.37740468 68.96664429 218.25802612 C68.96549811 212.51680973 68.98899214 206.77592862 69.01694012 201.03479004 C69.04196966 195.03035692 69.04429701 189.02591584 69.04904175 183.0214386 C69.06146692 171.65664711 69.09428248 160.29200979 69.13443971 148.92728615 C69.17917156 135.9866189 69.20114804 123.04594422 69.22122145 110.10521889 C69.26301539 83.49029263 69.33335868 56.87550317 69.42251587 30.26069641 C68.46087021 30.26957886 67.49922455 30.2784613 66.50843811 30.28761292 C57.43082438 30.36881904 48.35328468 30.42871942 39.27538967 30.4679451 C34.60870115 30.48878969 29.94230667 30.51704992 25.27578735 30.56245422 C20.76944667 30.60602394 16.26338822 30.62985704 11.7568531 30.64020538 C10.04049298 30.64757683 8.32414771 30.66197165 6.60790825 30.68361664 C4.19738676 30.71279939 1.78802053 30.71664634 -0.62265015 30.71479797 C-1.32684082 30.72917908 -2.03103149 30.74356018 -2.75656128 30.75837708 C-8.18443378 30.71355831 -11.18702416 29.2122146 -15.57748413 26.26069641 C-18.75935003 22.61870775 -19.91515367 18.49144055 -19.70248413 13.69819641 C-18.87203718 8.80025421 -16.43391074 5.34071855 -12.57748413 2.26069641 C-8.40181952 0.16609896 -4.58177167 -0.02471996 0 0 Z " fill="#009BE3" transform="translate(939.5774841308594,4.7393035888671875)"/>
<path d="M0 0 C1.24185562 -0.00686325 2.48371124 -0.0137265 3.76319885 -0.02079773 C7.14571548 -0.03588957 10.52767753 -0.03758 13.91018629 -0.03185534 C16.74537925 -0.02874823 19.58052319 -0.03487288 22.41570914 -0.04089409 C29.11067762 -0.05490495 35.8055184 -0.05340728 42.50048828 -0.04199219 C49.38123937 -0.03051875 56.26160032 -0.04458118 63.14230001 -0.07138866 C69.07384221 -0.09362325 75.00526265 -0.10016554 80.93684351 -0.09431225 C84.46893008 -0.09095938 88.00076678 -0.09324508 91.53281784 -0.11056328 C95.47645821 -0.12905835 99.41962753 -0.11476576 103.36328125 -0.09765625 C104.51583908 -0.10732422 105.66839691 -0.11699219 106.85588074 -0.12695312 C118.10261045 -0.02525406 127.0121738 2.87474835 135.13916016 10.79467773 C141.14206837 18.00680487 143.14655407 25.96013667 142.72509766 35.23217773 C141.57326273 44.05566794 138.30443469 51.70480543 131.31103516 57.40405273 C124.07962472 61.79660709 117.58567461 64.51056267 109.08972168 64.55122375 C108.05828033 64.55837906 107.02683899 64.56553436 105.96414185 64.57290649 C104.28250443 64.57693985 104.28250443 64.57693985 102.56689453 64.58105469 C100.78295792 64.59091148 100.78295792 64.59091148 98.96298218 64.60096741 C95.02692298 64.62067701 91.09087718 64.63236709 87.15478516 64.64233398 C85.7939502 64.64638507 84.43311544 64.6505021 83.07228088 64.65468407 C76.67305231 64.67372456 70.27383515 64.68795464 63.87458372 64.69629604 C56.51794164 64.70604656 49.16160218 64.73231322 41.80506659 64.77279693 C36.10034878 64.80309911 30.39571699 64.8177784 24.69092035 64.82107705 C21.29280794 64.82341266 17.89501918 64.83217524 14.49699402 64.85753822 C10.69453243 64.88203125 6.89284927 64.88094521 3.09033203 64.87402344 C1.98543427 64.8868335 0.8805365 64.89964355 -0.25784302 64.9128418 C-12.06413251 64.83506123 -22.1499943 62.15647343 -30.65771484 53.78686523 C-37.62521841 45.61344759 -38.34438253 36.65669377 -37.87255859 26.37329102 C-37.13801156 18.49449261 -32.95315873 12.14457369 -27.13037109 7.03686523 C-18.88590004 0.60122732 -10.15918353 -0.03954074 0 0 Z M93.81103516 18.27905273 C89.83704445 24.31321426 88.77488458 29.80694663 89.71337891 36.91577148 C91.42706448 44.05052777 96.34986389 49.35897224 102.31103516 53.40405273 C108.74274277 56.41463927 114.80044701 56.15825292 121.37353516 53.90405273 C127.46363435 51.26719931 131.58036552 46.95831386 134.47509766 41.01342773 C136.39712248 35.01383624 136.37411212 27.89816957 133.81103516 22.09155273 C130.31395579 16.13033915 124.8792374 11.5302337 118.31103516 9.40405273 C108.61595736 7.98925644 100.05092871 10.51318037 93.81103516 18.27905273 Z " fill="#0097E5" transform="translate(1216.68896484375,196.595947265625)"/>
<path d="M0 0 C1.24185562 -0.00686325 2.48371124 -0.0137265 3.76319885 -0.02079773 C7.14571548 -0.03588957 10.52767753 -0.03758 13.91018629 -0.03185534 C16.74537925 -0.02874823 19.58052319 -0.03487288 22.41570914 -0.04089409 C29.11067762 -0.05490495 35.8055184 -0.05340728 42.50048828 -0.04199219 C49.38123937 -0.03051875 56.26160032 -0.04458118 63.14230001 -0.07138866 C69.07384221 -0.09362325 75.00526265 -0.10016554 80.93684351 -0.09431225 C84.46893008 -0.09095938 88.00076678 -0.09324508 91.53281784 -0.11056328 C95.47645821 -0.12905835 99.41962753 -0.11476576 103.36328125 -0.09765625 C104.51583908 -0.10732422 105.66839691 -0.11699219 106.85588074 -0.12695312 C117.16732774 -0.03371139 126.00100272 2.21366308 133.59228516 9.47827148 C140.39988808 17.10588112 142.81653363 24.85169054 142.61962891 35.02124023 C141.8941447 42.97401645 139.02951173 49.81335702 133.50244141 55.61499023 C123.69510593 63.62169192 113.67646388 64.55161822 101.54516602 64.58105469 C99.77564072 64.59091148 99.77564072 64.59091148 97.97036743 64.60096741 C94.07221108 64.62065227 90.17406828 64.63236249 86.27587891 64.64233398 C84.92711429 64.64638595 83.57834987 64.650503 82.22958565 64.65468407 C75.88802562 64.6737157 69.54647706 64.6879489 63.20489401 64.69629604 C55.9173114 64.70605011 48.63003401 64.73232989 41.3425588 64.77279693 C35.68877581 64.80309991 30.03507959 64.81777838 24.38121706 64.82107705 C21.01434715 64.82341214 17.64806172 64.83418811 14.28123283 64.85753822 C10.51480071 64.88203348 6.74915434 64.88094496 2.98266602 64.87402344 C1.88869003 64.8868335 0.79471405 64.89964355 -0.33241272 64.9128418 C-12.10737251 64.83453513 -22.17596982 62.13091959 -30.65771484 53.78686523 C-37.62521841 45.61344759 -38.34438253 36.65669377 -37.87255859 26.37329102 C-37.13801156 18.49449261 -32.95315873 12.14457369 -27.13037109 7.03686523 C-18.88590004 0.60122732 -10.15918353 -0.03954074 0 0 Z M93.81103516 18.27905273 C89.83704445 24.31321426 88.77488458 29.80694663 89.71337891 36.91577148 C91.42706448 44.05052777 96.34986389 49.35897224 102.31103516 53.40405273 C108.74274277 56.41463927 114.80044701 56.15825292 121.37353516 53.90405273 C127.46363435 51.26719931 131.58036552 46.95831386 134.47509766 41.01342773 C136.39712248 35.01383624 136.37411212 27.89816957 133.81103516 22.09155273 C130.31395579 16.13033915 124.8792374 11.5302337 118.31103516 9.40405273 C108.61595736 7.98925644 100.05092871 10.51318037 93.81103516 18.27905273 Z " fill="#00A7E0" transform="translate(1216.68896484375,4.595947265625)"/>
<path d="M0 0 C1.25292343 -0.00671722 2.50584686 -0.01343445 3.79673767 -0.02035522 C7.21844761 -0.03605462 10.63991474 -0.04270769 14.06164384 -0.0439868 C16.20405178 -0.04541289 18.34643461 -0.04969112 20.48883629 -0.05498123 C27.9762978 -0.07345913 35.46368832 -0.08165469 42.95117188 -0.08007812 C49.90913671 -0.07887744 56.86679099 -0.0999709 63.82467729 -0.13156545 C69.81644728 -0.15779468 75.80811625 -0.16844264 81.79994315 -0.16716731 C85.3706088 -0.1666596 88.94099822 -0.17223556 92.51160622 -0.19352341 C96.49883573 -0.21664836 100.48537773 -0.20734453 104.47265625 -0.1953125 C105.64130219 -0.20655151 106.80994812 -0.21779053 108.01400757 -0.22937012 C118.19477321 -0.15154916 126.20564382 2.3164709 133.67651367 9.36474609 C140.63129949 17.00106995 142.88162912 24.81398283 142.67260742 35.04443359 C142.03036796 43.65251418 138.56786972 50.22139795 132.43041992 56.29052734 C126.55135434 60.54593597 121.3984251 63.39918682 114.06324768 63.45115662 C112.94896896 63.46120224 111.83469025 63.47124786 110.68664551 63.4815979 C108.85160461 63.49034439 108.85160461 63.49034439 106.97949219 63.49926758 C105.04728065 63.51394325 105.04728065 63.51394325 103.07603455 63.52891541 C98.79966233 63.56029129 94.52327079 63.58057565 90.24682617 63.59912109 C89.51796794 63.60241842 88.7891097 63.60571574 88.03816485 63.60911298 C81.15595456 63.63990906 74.27373975 63.66660184 67.39148045 63.68353176 C58.60866397 63.70539378 49.82646229 63.74726363 41.04389149 63.81696934 C34.85856031 63.86437938 28.67339392 63.88848836 22.48788685 63.89572865 C18.79954004 63.9006621 15.11188615 63.91551797 11.42373848 63.95547295 C7.29742114 63.99958283 3.17244446 63.99540515 -0.95410156 63.98754883 C-2.15924408 64.00754944 -3.3643866 64.02755005 -4.60604858 64.04815674 C-13.88977975 63.96919566 -21.73953103 61.55547021 -28.8071661 55.31473446 C-30.63316786 53.41175907 -32.10835311 51.48440292 -33.56958008 49.29052734 C-34.00141602 48.64728516 -34.43325195 48.00404297 -34.87817383 47.34130859 C-39.09856882 39.67450107 -38.80434393 29.63192153 -36.87426758 21.28271484 C-33.71602471 12.60418191 -27.94195693 6.21921736 -19.56958008 2.29052734 C-13.07597793 -0.09230638 -6.86507056 -0.00529685 0 0 Z M93.68823242 18.31396484 C89.93659188 24.20939998 88.79655358 29.96367332 89.79370117 36.86865234 C91.56168572 43.59350156 95.75776295 48.39752746 101.43041992 52.29052734 C107.57982667 55.77157918 113.62596062 56.02309949 120.43041992 54.29052734 C126.81001198 51.34230783 130.83615969 47.24352085 134.43041992 41.29052734 C136.4439133 35.2500472 136.52151498 28.45599679 134.44213867 22.42333984 C130.9786007 16.00359904 126.3486044 11.71995838 119.43041992 9.29052734 C108.83201937 7.66196159 100.36539332 9.7394686 93.68823242 18.31396484 Z " fill="#009FE2" transform="translate(1216.569580078125,101.70947265625)"/>
<path d="M0 0 C3.40733859 2.80315072 5.53156848 6.4168874 6.26551151 10.7476083 C6.40866553 13.27933417 6.4277804 15.78378054 6.40246582 18.31947327 C6.41182576 19.76767217 6.41182576 19.76767217 6.4213748 21.24512762 C6.43729337 24.47104197 6.42470467 27.69619956 6.41210938 30.92211914 C6.41753094 33.23851461 6.42465379 35.55490663 6.43334961 37.87129211 C6.45158055 44.15629003 6.44451644 50.44102523 6.43183327 56.72602773 C6.42170575 63.30290894 6.43109815 69.87976768 6.43737793 76.45664978 C6.44591998 88.20752179 6.43269183 99.95828326 6.41234058 111.70913612 C6.39446609 122.35961672 6.3975781 133.00992293 6.41601562 143.66040039 C6.43742956 156.03595788 6.44538591 168.41140421 6.43356657 180.78697771 C6.42732861 187.33533855 6.42650457 193.88357931 6.43971252 200.43193245 C6.45126048 206.58716361 6.4432641 212.74206515 6.4201355 218.89726067 C6.41484307 221.15715869 6.41637125 223.41708441 6.42518616 225.67697144 C6.43610355 228.75992238 6.42242324 231.84181454 6.40246582 234.92469788 C6.41585015 236.26871574 6.41585015 236.26871574 6.42950487 237.63988549 C6.36093215 243.09435588 5.55944693 246.2530983 1.89453125 250.55859375 C-2.75496277 254.02292263 -6.16813932 255.16870439 -11.96484375 254.8828125 C-17.1393681 254.0990798 -20.78865299 251.48963465 -24.10546875 247.55859375 C-25.00881903 244.84854292 -25.23273607 243.28689998 -25.23968983 240.5048933 C-25.24637659 239.26313675 -25.24637659 239.26313675 -25.25319844 237.9962942 C-25.25301408 237.0869707 -25.25282972 236.17764719 -25.25263977 235.24076843 C-25.25631646 234.27463664 -25.25999315 233.30850485 -25.26378125 232.31309634 C-25.27483394 229.06118326 -25.2786646 225.80930212 -25.2824707 222.55737305 C-25.28873407 220.23171893 -25.29538075 217.90606582 -25.30238342 215.58041382 C-25.3198029 209.25188152 -25.33034741 202.92335677 -25.33858895 196.59480643 C-25.34373627 192.64335546 -25.34981207 188.69190684 -25.35610008 184.74045753 C-25.3729695 173.80036938 -25.38760516 162.86028331 -25.39484882 151.92018414 C-25.39675871 149.08163642 -25.39867905 146.2430887 -25.40063477 143.40454102 C-25.40111851 142.69903568 -25.40160225 141.99353035 -25.40210065 141.26664606 C-25.41040316 129.83478807 -25.43574463 118.40303463 -25.46821544 106.9712223 C-25.50127984 95.23478745 -25.51929696 83.49840576 -25.52249306 71.76192409 C-25.52484725 65.17211694 -25.53385597 58.58247513 -25.55895424 51.99271202 C-25.58217839 45.79489439 -25.58649086 39.59735161 -25.57619286 33.3995018 C-25.57569604 31.12346675 -25.58205923 28.84741842 -25.5957489 26.57142448 C-25.61338164 23.46640773 -25.60640368 20.3623866 -25.59321594 17.25737 C-25.60418519 16.35473866 -25.61515443 15.45210732 -25.62645608 14.52212352 C-25.56876055 8.90337211 -24.74587593 5.89155968 -21.10546875 1.55859375 C-14.32967546 -3.66645097 -7.5211195 -3.44654152 0 0 Z " fill="#3787E9" transform="translate(858.10546875,7.44140625)"/>
<path d="M0 0 C3.65071686 1.42744837 7.00284574 3.0317966 10.4140625 4.96875 C11.42210937 5.53980469 12.43015625 6.11085937 13.46875 6.69921875 C14.5103125 7.29347656 15.551875 7.88773438 16.625 8.5 C18.19894531 9.39138672 18.19894531 9.39138672 19.8046875 10.30078125 C27.54717938 14.69811959 27.54717938 14.69811959 31 17 C31.302029 19.99330021 31.40924456 22.78040066 31.38818359 25.77661133 C31.39344055 26.68570755 31.39869751 27.59480377 31.40411377 28.53144836 C31.41735919 31.54848216 31.40855744 34.56499171 31.3984375 37.58203125 C31.40045746 39.67469891 31.40336824 41.76736588 31.40713501 43.86003113 C31.41156495 48.25253989 31.40510768 52.64486595 31.39111328 57.03735352 C31.37405272 62.66662873 31.38383861 68.29547388 31.40183067 73.92473316 C31.41267738 78.24931571 31.40921752 82.57379655 31.4014473 86.89838219 C31.39944611 88.9736098 31.40190171 91.04884666 31.40888596 93.12406349 C31.41651135 96.02802548 31.40487926 98.93129463 31.38818359 101.83520508 C31.39729263 103.12198151 31.39729263 103.12198151 31.40658569 104.43475342 C31.35665243 109.12684587 31.01617677 112.17832687 28 116 C23.25364658 120.27171808 19.59861592 121.38133703 13.34765625 121.26953125 C9.47131489 120.82449372 6.91908604 119.54945285 4 117 C-0.3082401 111.07153043 -0.55728159 105.19224511 -0.45410156 98.0859375 C-0.45468567 97.0216301 -0.45526978 95.95732269 -0.45587158 94.86076355 C-0.45309904 91.3651699 -0.42204507 87.87044353 -0.390625 84.375 C-0.38315969 81.94263169 -0.37746813 79.51025735 -0.37347412 77.07788086 C-0.3582408 70.69255818 -0.31897823 64.30760252 -0.2746582 57.92242432 C-0.23365616 51.40015629 -0.21545254 44.87782866 -0.1953125 38.35546875 C-0.15248225 25.5701564 -0.08503309 12.78509777 0 0 Z " fill="#278CE8" transform="translate(1009,141)"/>
<path d="M0 0 C3.39171545 2.79029786 5.54800767 6.40870391 6.24467468 10.73094177 C6.3547936 13.16110621 6.34501021 15.56029204 6.28515625 17.9921875 C6.27949646 18.87012466 6.27383667 19.74806183 6.26800537 20.65260315 C6.24575978 23.43434055 6.19558716 26.21475107 6.14453125 28.99609375 C6.1244509 30.89125733 6.10620283 32.78644127 6.08984375 34.68164062 C6.04593395 39.30779659 5.97699007 43.93297084 5.89453125 48.55859375 C1.77586359 47.30524999 -1.71946878 45.78357163 -5.3984375 43.5546875 C-6.35814453 42.97912109 -7.31785156 42.40355469 -8.30664062 41.81054688 C-9.78487305 40.91239258 -9.78487305 40.91239258 -11.29296875 39.99609375 C-13.26409375 38.80475446 -15.23668487 37.61583658 -17.2109375 36.4296875 C-18.07871826 35.9030249 -18.94649902 35.3763623 -19.84057617 34.83374023 C-22.15376375 33.43701594 -22.15376375 33.43701594 -25.10546875 32.55859375 C-25.22209136 28.5171716 -25.29286225 24.4761851 -25.35546875 20.43359375 C-25.38898437 19.29148437 -25.4225 18.149375 -25.45703125 16.97265625 C-25.58138349 6.27836325 -25.58138349 6.27836325 -21.10546875 1.55859375 C-14.32967546 -3.66645097 -7.5211195 -3.44654152 0 0 Z " fill="#0193E6" transform="translate(858.10546875,7.44140625)"/>
<path d="M0 0 C8.17356145 3.77639231 15.92943315 8.19324751 23.6875 12.75 C24.68023926 13.32903076 25.67297852 13.90806152 26.69580078 14.50463867 C27.62505371 15.05482666 28.55430664 15.60501465 29.51171875 16.171875 C30.35178467 16.6678418 31.19185059 17.16380859 32.05737305 17.67480469 C34 19 34 19 35 21 C26.05821633 21.60622262 17.48687109 20.18538133 10.05078125 14.90625 C5.94096896 11.30641441 2.50505334 7.90639427 0 3 C0 2.01 0 1.02 0 0 Z " fill="#0F90E6" transform="translate(1181,240)"/>
</svg>
